<?xml version="1.0" encoding="UTF-8" standalone="no"?>
<svg
   width="500"
   height="500"
   viewBox="0 0 375 375.00001"
   version="1.1"
   id="svg3"
   sodipodi:docname="lastfm.svg"
   inkscape:version="1.4 (e7c3feb100, 2024-10-09)"
   xmlns:inkscape="http://www.inkscape.org/namespaces/inkscape"
   xmlns:sodipodi="http://sodipodi.sourceforge.net/DTD/sodipodi-0.dtd"
   xmlns="http://www.w3.org/2000/svg"
   xmlns:svg="http://www.w3.org/2000/svg">
  <sodipodi:namedview
     id="namedview3"
     pagecolor="#ffffff"
     bordercolor="#000000"
     borderopacity="0.25"
     inkscape:showpageshadow="2"
     inkscape:pageopacity="0.0"
     inkscape:pagecheckerboard="0"
     inkscape:deskcolor="#d1d1d1"
     inkscape:document-units="pt"
     inkscape:zoom="1.432"
     inkscape:cx="249.65084"
     inkscape:cy="250"
     inkscape:window-width="1920"
     inkscape:window-height="951"
     inkscape:window-x="0"
     inkscape:window-y="0"
     inkscape:window-maximized="1"
     inkscape:current-layer="svg3" />
  <defs
     id="defs1">
    <clipPath
       id="clip1">
      <path
         d="M 0,0 H 378.37891 V 378.37109 H 0 Z m 0,0"
         id="path1" />
    </clipPath>
  </defs>
  <g
     id="surface1"
     transform="matrix(0.98316179,0,0,0.98316179,1.4961568,1.5000009)">
    <g
       clip-path="url(#clip1)"
       clip-rule="nonzero"
       id="g2">
      <path
         style="fill:#d90019;fill-opacity:1;fill-rule:evenodd;stroke:none"
         d="m 378.37891,189.18359 c 0,104.48438 -84.70704,189.1875 -189.19141,189.1875 C 84.699219,378.37109 0,293.66797 0,189.18359 0,84.695313 84.699219,-0.00390625 189.1875,-0.00390625 c 104.48437,0 189.19141,84.69921925 189.19141,189.18749625"
         id="path2" />
    </g>
    <path
       style="fill:#fdfdfd;fill-opacity:1;fill-rule:evenodd;stroke:none"
       d="m 186.85547,216.32422 c 3.32031,7.83984 6.23437,15.0039 9.42187,22.05078 0.85547,1.89453 -0.40625,2.54687 -1.22656,3.46094 -13.82422,15.47265 -31.10937,24.4414 -51.73437,26.25781 -38.8711,3.41797 -73.578129,-21.30469 -83.269535,-58.88672 -13.921875,-53.96094 32.472656,-105.42969 87.460935,-97.1914 29.42188,4.40234 49.3086,20.91406 61.19141,47.60937 9.27344,20.83984 18.16406,41.84766 27.26562,62.76172 1.09766,2.52344 2.34766,4.99219 3.67969,7.40234 9.75,17.69141 33.50391,22.94531 49.97266,11.07813 3.52343,-2.53907 6.28906,-5.73047 8.17578,-9.66797 5.5664,-11.59375 1.75,-22.875 -9.80469,-28.33985 -9.3125,-4.40625 -19.41406,-6.73828 -28.89844,-10.70703 -5.79297,-2.42968 -11.4375,-5.11328 -16.68359,-8.61718 -12.42969,-8.3125 -17.19922,-20.23438 -16.01563,-34.69141 1.23829,-15.08984 8.3125,-26.48437 22.70704,-32.28906 16.51953,-6.66406 41.44921,-6.38281 55.39843,15.34375 1.80078,2.79687 1.79297,4.29687 -1.41015,5.6914 -3.44922,1.4961 -6.84375,3.1836 -10.04297,5.13672 -2.29688,1.39844 -3.48438,1.11328 -5.17188,-1.02734 -6.51172,-8.26172 -15.14062,-11.29297 -25.41797,-9.17188 -8.82031,1.81641 -14.54687,8.17969 -15.71875,17.01172 -1.11718,8.41797 2.4961,14.95703 10.82032,19.19922 7.41406,3.78125 15.52343,5.69141 23.35937,8.33203 5.70703,1.92188 11.37891,3.90625 16.79297,6.57813 22.75391,11.22265 30.66406,36.57812 18.28125,58.85937 -6.375,11.47266 -16.27344,18.72266 -28.69141,22.24219 -17.37109,4.92187 -34.30859,4.17969 -49.85156,-6.11719 -8.27734,-5.48047 -14,-13.34765 -18.03906,-22.21875 -9.75781,-21.44531 -19.34766,-42.96875 -28.60938,-64.63281 -5,-11.67969 -11.46093,-21.92188 -22.16406,-29.21484 -19,-12.94532 -45.01953,-13.08204 -64.25,-0.12891 -19.35156,13.02734 -29.046872,36.80469 -24.109372,59.11328 5.183593,23.44922 23.707032,41.14453 46.839842,44.75391 23.20313,3.62109 46.02734,-7.05078 58.15234,-27.19532 0.38282,-0.63671 0.73829,-1.29296 1.58985,-2.78515"
       id="path3" />
  </g>
</svg>
