<?xml version="1.0" encoding="UTF-8" standalone="no"?>
<svg
   viewBox="0 0 550 500"
   version="1.1"
   id="svg1"
   sodipodi:docname="youtube.svg"
   width="550"
   height="500"
   inkscape:version="1.4 (e7c3feb100, 2024-10-09)"
   xmlns:inkscape="http://www.inkscape.org/namespaces/inkscape"
   xmlns:sodipodi="http://sodipodi.sourceforge.net/DTD/sodipodi-0.dtd"
   xmlns="http://www.w3.org/2000/svg"
   xmlns:svg="http://www.w3.org/2000/svg">
  <defs
     id="defs1" />
  <sodipodi:namedview
     id="namedview1"
     pagecolor="#ffffff"
     bordercolor="#000000"
     borderopacity="0.25"
     inkscape:showpageshadow="2"
     inkscape:pageopacity="0.0"
     inkscape:pagecheckerboard="0"
     inkscape:deskcolor="#d1d1d1"
     inkscape:zoom="1.432"
     inkscape:cx="275.13966"
     inkscape:cy="250"
     inkscape:window-width="1920"
     inkscape:window-height="951"
     inkscape:window-x="0"
     inkscape:window-y="0"
     inkscape:window-maximized="1"
     inkscape:current-layer="svg1" />
  <circle
     style="fill:#ff0000;fill-opacity:1;stroke:none;stroke-width:2.04188;stroke-linecap:round;stroke-miterlimit:24;paint-order:fill markers stroke"
     id="path2"
     cx="275"
     cy="250"
     r="248" />
  <circle
     style="fill:none;fill-opacity:1;stroke:#ffffff;stroke-width:10;stroke-linecap:round;stroke-miterlimit:24;stroke-opacity:1;paint-order:fill markers stroke;stroke-dasharray:none"
     id="path2-5"
     cx="275"
     cy="250"
     r="199.18004" />
  <path
     fill="#ff0000"
     d="m 213.83799,-96.861844 c -0.72,-2.7 -2.85,-4.829996 -5.56,-5.559996 -4.9,-1.31 -24.56,-1.31 -24.56,-1.31 0,0 -19.65,0 -24.56,1.31 -2.7,0.72 -4.83,2.849996 -5.56,5.559996 -1.31,4.9 -1.31,15.13 -1.31,15.13 0,0 0,10.23 1.31,15.13 0.72,2.7 2.85,4.83 5.56,5.56 4.91,1.31 24.56,1.31 24.56,1.31 0,0 19.66,0 24.56,-1.31 2.7,-0.72 4.83,-2.85 5.56,-5.56 1.31,-4.9 1.31,-15.13 1.31,-15.13 0,0 0,-10.23 -1.31,-15.13 z"
     id="path1" />
  <polygon
     fill="#ffffff"
     points="26.6,20.57 26.6,39.43 42.93,30 "
     id="polygon1"
     transform="matrix(13.255567,0,0,13.255567,-177.82979,-147.66701)" />
</svg>
